King Kong vs Godzilla (1962) Toho Original Japanese version. DVDRip 
 
http://www.imdb.com/title/tt0056142/



General
Complete name                    : King Kong vs Godzilla (1962)KONGVSGODZILLA.Title2.avi
Format                           : AVI
Format/Info                      : Audio Video Interleave
File size                        : 1.62 GiB
Duration                         : 1h 37mn
Overall bit rate                 : 2 396 Kbps
Movie name                       : KONGVSGODZILLA.Title2.DVDRip
Writing application              : Lavf52.33.0
Original source form/Name        : KONGVSGODZILLA

Video
ID                               : 0
Format                           : AVC
Format/Info                      : Advanced Video Codec
Format profile                   : Baseline@L1.3
Format settings, CABAC           : No
Format settings, ReFrames        : 1 frame
Codec ID                         : H264
Duration                         : 1h 37mn
Bit rate                         : 2000 Kbps
Width                            : 800 pixels
Height                           : 342 pixels
Display aspect ratio             : 2.35:1
Frame rate                       : 29.970 fps
Resolution                       : 24 bits
Colorimetry                      : 4:2:0
Scan type                        : Progressive
Bits/(Pixel*Frame)               : 0.244
Stream size                      : 1.36 GiB (83%)
Writing library                  : x264 core 67

Audio
ID                               : 1
Format                           : AC-3
Format/Info                      : Audio Coding 3
Codec ID                         : 2000
Duration                         : 1h 37mn
Bit rate mode                    : Constant
Bit rate                         : 384 Kbps
Channel(s)                       : 6 channels
Channel positions                : Front: L C R, Surround: L R, LFE
Sampling rate                    : 48.0 KHz
Stream size                      : 266 MiB (16%)
Alignment                        : Aligned on interleaves
Interleave, duration             : 32 ms (0.96 video frame)
Interleave, preload duration     : 32 ms

English Subtitles




